<svg width="93" height="24" viewBox="0 0 93 24" fill="none" xmlns="http://www.w3.org/2000/svg">
<g clip-path="url(#clip0_496_476)">
<path d="M14.0577 6.98517C14.0557 7.3188 13.7495 7.55477 13.4184 7.51987C12.5976 7.43336 11.8456 7.44055 11.1426 7.5139C9.61226 7.67355 8.34056 8.14622 7.16816 8.58199L7.16556 8.58294C7.09466 8.60931 7.02406 8.63554 6.95376 8.66156C5.70886 9.12263 4.56176 9.51927 3.20076 9.55074C2.65786 9.5633 2.07286 9.51758 1.42886 9.38783C0.876364 9.27654 0.435062 8.85423 0.325562 8.30032C0.238862 7.8614 0.193359 7.40761 0.193359 6.94317C0.193359 3.1064 3.29706 -0.00390625 7.12556 -0.00390625C10.9542 -0.00390625 14.0578 3.1064 14.0578 6.94317C14.0578 6.95718 14.0578 6.97118 14.0577 6.98517Z" fill="url(#paint0_radial_496_476)"/>
<path d="M0.810903 10.4394C0.290303 10.3141 -0.184693 10.8747 0.0716073 11.3457L6.8761 23.8473C6.9856 24.0485 7.27381 24.0485 7.38331 23.8473L14.8936 10.0488C15.16 9.55945 14.9037 8.9464 14.3582 8.83718C13.1714 8.59957 12.1603 8.57403 11.2603 8.66792C9.87951 8.81198 8.7326 9.23771 7.5421 9.67967C7.479 9.70308 7.41581 9.72654 7.35251 9.75002C6.10611 10.2116 4.79811 10.6743 3.22551 10.7106C2.47811 10.7279 1.682 10.6491 0.810903 10.4394Z" fill="url(#paint1_linear_496_476)"/>
<path d="M7.12695 10.0748C7.12695 9.92983 7.21725 9.80027 7.35295 9.75002C7.41635 9.72654 7.47956 9.70308 7.54266 9.67967C8.73316 9.23771 9.88006 8.81198 11.2609 8.66792C12.1609 8.57403 13.172 8.59957 14.3588 8.83718C14.9043 8.9464 15.1606 9.55945 14.8942 10.0488L7.38375 23.8473C7.32845 23.949 7.22745 23.9993 7.12695 23.9982V10.0748Z" fill="url(#paint2_linear_496_476)"/>
<path fill-rule="evenodd" clip-rule="evenodd" d="M31.66 4.06433C30.772 3.8105 29.947 3.68359 29.122 3.68359C27.599 3.68359 26.203 4.06433 24.9342 4.69885C23.6651 5.39681 22.7133 6.3486 22.0153 7.61765C21.3173 8.88669 21 10.2827 21 11.9324C21 13.5822 21.3808 14.9781 22.0788 16.2472C22.7765 17.5162 23.7918 18.468 24.9974 19.166C26.203 19.864 27.535 20.2447 29.059 20.2447C30.454 20.2447 31.723 19.9909 32.866 19.3564C34.008 18.7853 34.896 17.897 35.594 16.6913C36.292 15.4857 36.609 14.0898 36.609 12.44V11.7421C36.609 11.6535 36.609 11.5511 36.609 11.4414L36.61 11.3098C36.61 11.1631 36.491 11.0441 36.344 11.0441H29.767C29.62 11.0441 29.501 11.1631 29.501 11.3098V13.6337C29.501 13.7805 29.62 13.8995 29.767 13.8995H32.769C32.877 13.8995 32.96 13.9958 32.941 14.1022C32.878 14.4449 32.789 14.7561 32.675 15.0416C32.421 15.7396 31.977 16.1837 31.343 16.5644C30.772 16.8817 30.01 17.0721 29.059 17.0721C28.297 17.0721 27.535 16.8183 26.901 16.4376C26.203 15.9934 25.695 15.4223 25.3146 14.6609C24.9342 13.8995 24.7436 13.0111 24.7436 11.9959C24.7436 10.9806 24.9342 10.0923 25.3146 9.33087C25.695 8.56943 26.203 7.93491 26.901 7.55421C27.599 7.11004 28.361 6.91969 29.185 6.91969C29.947 6.91969 30.708 7.11004 31.343 7.4273C31.907 7.70929 32.421 8.1918 32.84 8.7857C32.926 8.90832 33.095 8.94361 33.219 8.85906L35.58 7.24953C35.695 7.17095 35.73 7.01622 35.654 6.8992C35.221 6.23072 34.64 5.66648 34.008 5.20646C33.246 4.69885 32.548 4.31811 31.66 4.06433ZM51.983 4.57803L54.815 3.83225C54.983 3.78787 55.148 3.91496 55.148 4.08922V19.7251C55.148 19.8719 55.029 19.9908 54.882 19.9908H52.051C51.904 19.9908 51.785 19.8719 51.785 19.7251V4.835C51.785 4.71431 51.867 4.60877 51.983 4.57803ZM85.386 11.1709C85.83 10.9171 86.274 10.7902 86.782 10.7902C87.353 10.7902 87.797 10.9806 88.178 11.1709C88.558 11.3613 88.876 11.742 89.129 12.2496C89.383 12.7572 89.51 13.3283 89.51 14.0263C89.51 14.7243 89.383 15.2953 89.129 15.803C88.939 16.3106 88.622 16.6913 88.178 16.9451C87.797 17.1989 87.289 17.3258 86.782 17.3258C86.274 17.3258 85.766 17.1989 85.386 16.9451C85.005 16.6913 84.688 16.3106 84.434 15.803C84.18 15.2953 84.053 14.7243 84.053 14.0263C84.053 13.3283 84.18 12.7572 84.434 12.2496C84.624 11.8055 84.942 11.4247 85.386 11.1709ZM89.954 8.56938C89.066 8.06176 87.987 7.80794 86.782 7.80794C85.64 7.80794 84.561 8.06176 83.609 8.56938C82.657 9.077 81.959 9.83843 81.388 10.7902C80.817 11.742 80.563 12.8207 80.563 14.0263C80.563 15.2319 80.881 16.3106 81.388 17.2624C81.896 18.2142 82.657 18.9756 83.609 19.4832C84.561 19.9908 85.64 20.2446 86.782 20.2446C87.924 20.2446 89.002 19.9908 89.954 19.4832C90.906 18.9756 91.604 18.2142 92.175 17.2624C92.746 16.3106 93 15.2319 93 14.0263C93 12.8207 92.683 11.742 92.175 10.7902C91.667 9.83843 90.906 9.077 89.954 8.56938ZM65.938 18.7813C65.963 18.7411 66.036 18.7596 66.036 18.807V19.7252C66.036 19.872 66.154 19.9909 66.301 19.9909H69.133C69.279 19.9909 69.398 19.872 69.398 19.7252V8.45452C69.398 8.30777 69.279 8.1888 69.133 8.1888H66.301C66.154 8.1888 66.036 8.30777 66.036 8.45452V9.47582C66.036 9.56305 65.92 9.59963 65.867 9.53046C65.689 9.29883 65.491 9.08363 65.274 8.88676C64.576 8.1888 63.624 7.87153 62.482 7.87153C61.467 7.87153 60.579 8.12536 59.754 8.69645C58.992 9.20406 58.358 9.96549 57.914 10.9173C57.469 11.8691 57.279 12.9477 57.279 14.0899C57.279 15.232 57.469 16.3107 57.914 17.2625C58.358 18.2143 58.929 18.9123 59.754 19.4834C60.515 20.0544 61.467 20.3082 62.482 20.3082C63.688 20.3082 64.576 19.9275 65.337 19.4199C65.628 19.2262 65.828 18.9562 65.938 18.7813ZM64.766 16.8818C64.322 17.1356 63.878 17.2625 63.37 17.2625C62.863 17.2625 62.419 17.1356 61.974 16.8818C61.594 16.628 61.277 16.2473 61.023 15.7397C60.832 15.232 60.705 14.661 60.705 14.0264C60.705 13.3919 60.769 12.8843 61.023 12.3766C61.277 11.9325 61.594 11.5518 61.974 11.298C62.419 11.0442 62.863 10.9173 63.37 10.9173C63.878 10.9173 64.386 11.0442 64.766 11.298C65.147 11.5518 65.464 11.869 65.718 12.3766C65.909 12.8208 66.036 13.3919 66.036 14.0264C66.036 14.661 65.972 15.232 65.718 15.7397C65.464 16.2473 65.147 16.628 64.766 16.8818ZM76.782 10.7903C76.734 10.7903 76.694 10.8299 76.694 10.8789V15.4223C76.694 16.501 77.138 17.072 78.026 17.072H79.03C79.177 17.072 79.295 17.191 79.295 17.3378V19.7251C79.295 19.8719 79.177 19.9909 79.03 19.9909H77.582C76.25 19.9909 75.171 19.6101 74.473 18.8487C73.712 18.0873 73.331 17.0086 73.331 15.6126V10.8789C73.331 10.8299 73.291 10.7903 73.242 10.7903H71.279C71.097 10.7903 70.969 10.6113 71.027 10.4389L71.732 8.36878C71.769 8.2611 71.87 8.1887 71.984 8.1887H73.242C73.291 8.1887 73.331 8.14904 73.331 8.10012V4.92361C73.331 4.80292 73.412 4.69738 73.529 4.66664L76.472 3.89159C76.584 3.862 76.694 3.94673 76.694 4.0629V8.10012C76.694 8.14904 76.734 8.1887 76.782 8.1887H79.101C79.284 8.1887 79.412 8.36769 79.353 8.54007L78.648 10.6102C78.612 10.7179 78.51 10.7903 78.397 10.7903H76.782ZM44.07 7.80794C45.212 7.80794 46.164 8.06177 46.989 8.56938C47.813 9.07699 48.511 9.83843 48.956 10.7902C49.463 11.742 49.654 12.8207 49.654 14.0263V14.5855C49.654 14.7322 49.535 14.8512 49.388 14.8512H41.857C41.75 14.8512 41.667 14.9461 41.685 15.052C41.741 15.3696 41.819 15.6485 41.912 15.8664C42.166 16.374 42.484 16.7548 42.864 16.9451C43.245 17.1355 43.753 17.3258 44.387 17.3258C44.958 17.3258 45.529 17.1989 45.91 17.0086C46.277 16.8512 46.601 16.5639 46.881 16.2182C46.977 16.0993 47.152 16.0748 47.271 16.1712L49.201 17.7357C49.312 17.8257 49.332 17.9878 49.242 18.0984C48.701 18.7598 48.051 19.2637 47.242 19.6101C46.354 19.9908 45.402 20.1812 44.387 20.1812C43.181 20.1812 42.103 19.9274 41.151 19.4197C40.199 18.9121 39.501 18.1507 38.994 17.1989C38.486 16.2471 38.232 15.1685 38.232 13.9628C38.232 12.7572 38.486 11.6786 38.994 10.7268C39.501 9.77499 40.199 9.07699 41.087 8.50594C41.976 8.06177 42.928 7.80794 44.07 7.80794ZM41.932 12.6304C41.82 12.6304 41.736 12.528 41.763 12.4195C41.874 11.963 42.036 11.5892 42.229 11.2978C42.61 10.7267 43.245 10.4095 44.07 10.4095C44.831 10.4095 45.466 10.7267 45.846 11.2978C46.036 11.5824 46.194 11.9614 46.305 12.4192C46.332 12.5279 46.247 12.6304 46.136 12.6304H41.932Z" fill="black"/>
</g>
<defs>
<radialGradient id="paint0_radial_496_476" cx="0" cy="0" r="1" gradientUnits="userSpaceOnUse" gradientTransform="translate(11.3286 2.02232) rotate(149.79) scale(12.0708 14.4781)">
<stop offset="0.116813" stop-color="#AAAAAA"/>
<stop offset="0.734375" stop-color="#292929"/>
<stop offset="1" stop-color="#5F5F5F"/>
</radialGradient>
<linearGradient id="paint1_linear_496_476" x1="7.49981" y1="8.98362" x2="7.49981" y2="23.9982" gradientUnits="userSpaceOnUse">
<stop stop-color="#736F6F"/>
<stop offset="0.46875"/>
<stop offset="1" stop-color="#454545"/>
</linearGradient>
<linearGradient id="paint2_linear_496_476" x1="11.0636" y1="8.61719" x2="11.0636" y2="24.9982" gradientUnits="userSpaceOnUse">
<stop stop-color="#A4A4A4"/>
<stop offset="1"/>
</linearGradient>
<clipPath id="clip0_496_476">
<rect width="93" height="24" fill="white"/>
</clipPath>
</defs>
</svg>
